<?xml version="1.0" standalone="no"?>
<!DOCTYPE svg PUBLIC "-//W3C//DTD SVG 20010904//EN"
 "http://www.w3.org/TR/2001/REC-SVG-20010904/DTD/svg10.dtd">
<svg version="1.0" xmlns="http://www.w3.org/2000/svg"
 width="512.000000pt" height="512.000000pt" viewBox="0 0 512.000000 512.000000"
 preserveAspectRatio="xMidYMid meet">

<g transform="translate(0.000000,512.000000) scale(0.100000,-0.100000)"
fill="#000000" stroke="none">
<path d="M1275 4224 c-212 -18 -423 -64 -577 -126 -96 -38 -229 -109 -278
-147 l-25 -20 0 -1457 0 -1456 35 -29 c20 -17 46 -29 63 -29 15 0 76 20 135
44 304 125 541 171 872 170 409 -1 713 -74 976 -235 l83 -51 153 75 c315 155
566 212 933 212 250 -1 416 -21 615 -75 74 -20 227 -78 288 -109 72 -37 136
-20 166 43 15 31 16 159 16 1433 0 769 -3 1415 -7 1437 -5 34 -14 43 -72 81
-181 117 -375 181 -676 226 -135 20 -560 17 -700 -5 -267 -41 -468 -112 -652
-228 l-63 -40 -63 40 c-183 116 -389 188 -647 227 -102 16 -470 28 -575 19z
m2650 -409 c156 -18 294 -43 355 -65 l45 -16 3 -1127 2 -1127 -27 6 c-16 3
-62 15 -103 25 -278 69 -605 85 -883 44 -230 -35 -384 -83 -597 -188 -80 -40
-148 -73 -152 -75 -5 -2 -8 502 -8 1120 l0 1123 33 21 c30 19 207 106 252 124
39 16 161 58 210 73 228 69 589 94 870 62z"/>
</g>
</svg>
